<svg width="25" height="25" viewBox="0 0 25 25" fill="none" xmlns="http://www.w3.org/2000/svg">
<path d="M20.7352 3.7646C18.4847 1.51416 15.4325 0.249878 12.2499 0.249878C9.06728 0.249878 6.01503 1.51416 3.7646 3.7646C1.51416 6.01503 0.249878 9.06728 0.249878 12.2499C0.249878 15.4325 1.51416 18.4847 3.7646 20.7352C6.01503 22.9856 9.06728 24.2499 12.2499 24.2499C15.4325 24.2499 18.4847 22.9856 20.7352 20.7352C22.9856 18.4847 24.2499 15.4325 24.2499 12.2499C24.2499 9.06728 22.9856 6.01503 20.7352 3.7646ZM18.7113 20.0809C18.1423 20.5513 17.5232 20.9576 16.8652 21.2925V8.93953L18.7113 7.0934V20.0809ZM9.48068 16.3241L11.3268 14.4779V22.3563C10.7021 22.298 10.0841 22.1821 9.48068 22.0101V16.3241ZM7.63455 21.2925C6.96302 20.9505 6.33213 20.5341 5.7538 20.0509L7.63455 18.1702V21.2925ZM13.1729 12.6318L15.0191 10.7857V22.0148C14.4157 22.1867 13.7977 22.3026 13.1729 22.3609V12.6318ZM2.09616 12.2499C2.09667 10.3207 2.64678 8.43157 3.68206 6.8037C4.71734 5.17583 6.19495 3.87659 7.94189 3.05808C9.68884 2.23957 11.6328 1.93567 13.5462 2.18197C15.4596 2.42828 17.2632 3.21458 18.746 4.44882L4.44766 18.7471C2.92265 16.9262 2.08983 14.6251 2.09616 12.2499ZM20.5575 18.0871V6.41264C21.7586 8.12217 22.4031 10.1606 22.4031 12.2499C22.4031 14.3392 21.7586 16.3776 20.5575 18.0871Z" fill="white"/>
</svg>
