<svg width="25" height="25" viewBox="0 0 25 25" fill="none" xmlns="http://www.w3.org/2000/svg">
<path d="M12.25 0.25C9.87663 0.25 7.55655 0.953788 5.58316 2.27236C3.60977 3.59094 2.0717 5.46508 1.16345 7.6578C0.255199 9.85051 0.0175594 12.2633 0.480582 14.5911C0.943605 16.9189 2.08649 19.057 3.76472 20.7353C5.44295 22.4135 7.58115 23.5564 9.90892 24.0194C12.2367 24.4824 14.6495 24.2448 16.8422 23.3365C19.0349 22.4283 20.9091 20.8902 22.2276 18.9168C23.5462 16.9434 24.25 14.6234 24.25 12.25C24.2466 9.06843 22.9813 6.01814 20.7316 3.76843C18.4819 1.51872 15.4316 0.25336 12.25 0.25ZM13.1731 2.13885C13.798 2.19587 14.4161 2.31177 15.0192 2.485V22.0196C14.4161 22.1928 13.798 22.3087 13.1731 22.3658V2.13885ZM16.8654 3.20731C17.5233 3.54414 18.1424 3.95195 18.7115 4.42346V20.0765C18.1424 20.548 17.5233 20.9559 16.8654 21.2927V3.20731ZM2.09616 12.25C2.0992 9.71777 3.04713 7.27783 4.75442 5.40771C6.46171 3.53759 8.80545 2.37192 11.3269 2.13885V22.3612C8.80545 22.1281 6.46171 20.9624 4.75442 19.0923C3.04713 17.2222 2.0992 14.7822 2.09616 12.25ZM20.5577 18.0815V6.41846C21.7591 8.12572 22.4039 10.1624 22.4039 12.25C22.4039 14.3376 21.7591 16.3743 20.5577 18.0815Z" fill="white"/>
</svg>
