<svg width="32" height="33" viewBox="0 0 32 33" fill="none" xmlns="http://www.w3.org/2000/svg">
<path d="M26.5387 9.46002C26.8444 8.47401 26.9425 7.43537 26.8267 6.40958C26.711 5.3838 26.3839 4.39312 25.8662 3.50002C25.7785 3.34796 25.6522 3.22171 25.5001 3.13393C25.3481 3.04616 25.1756 2.99998 25 3.00002C23.8352 2.99758 22.686 3.2676 21.6442 3.7885C20.6024 4.3094 19.6969 5.06674 19 6.00002H16C15.3031 5.06674 14.3976 4.3094 13.3558 3.7885C12.314 3.2676 11.1648 2.99758 10 3.00002C9.82443 2.99998 9.65193 3.04616 9.49987 3.13393C9.34781 3.22171 9.22154 3.34796 9.13375 3.50002C8.61606 4.39312 8.28903 5.3838 8.17329 6.40958C8.05754 7.43537 8.15559 8.47401 8.46125 9.46002C7.84341 10.5384 7.51245 11.7572 7.5 13V14C7.5021 15.692 8.11634 17.3261 9.22928 18.6006C10.3422 19.875 11.8787 20.7038 13.555 20.9338C12.8708 21.8093 12.4994 22.8888 12.5 24V25H9.5C8.70435 25 7.94129 24.6839 7.37868 24.1213C6.81607 23.5587 6.5 22.7957 6.5 22C6.5 21.3434 6.37067 20.6932 6.1194 20.0866C5.86812 19.48 5.49983 18.9288 5.03553 18.4645C4.57124 18.0002 4.02005 17.6319 3.41342 17.3806C2.80679 17.1293 2.15661 17 1.5 17C1.23478 17 0.98043 17.1054 0.792893 17.2929C0.605357 17.4804 0.5 17.7348 0.5 18C0.5 18.2652 0.605357 18.5196 0.792893 18.7071C0.98043 18.8947 1.23478 19 1.5 19C2.29565 19 3.05871 19.3161 3.62132 19.8787C4.18393 20.4413 4.5 21.2044 4.5 22C4.5 23.3261 5.02678 24.5979 5.96447 25.5356C6.90215 26.4732 8.17392 27 9.5 27H12.5V29C12.5 29.2652 12.6054 29.5196 12.7929 29.7071C12.9804 29.8947 13.2348 30 13.5 30C13.7652 30 14.0196 29.8947 14.2071 29.7071C14.3946 29.5196 14.5 29.2652 14.5 29V24C14.5 23.2044 14.8161 22.4413 15.3787 21.8787C15.9413 21.3161 16.7044 21 17.5 21C18.2956 21 19.0587 21.3161 19.6213 21.8787C20.1839 22.4413 20.5 23.2044 20.5 24V29C20.5 29.2652 20.6054 29.5196 20.7929 29.7071C20.9804 29.8947 21.2348 30 21.5 30C21.7652 30 22.0196 29.8947 22.2071 29.7071C22.3946 29.5196 22.5 29.2652 22.5 29V24C22.5006 22.8888 22.1292 21.8093 21.445 20.9338C23.1213 20.7038 24.6578 19.875 25.7707 18.6006C26.8837 17.3261 27.4979 15.692 27.5 14V13C27.4875 11.7572 27.1566 10.5384 26.5387 9.46002ZM25.5 14C25.5 15.3261 24.9732 16.5979 24.0355 17.5356C23.0979 18.4732 21.8261 19 20.5 19H14.5C13.1739 19 11.9021 18.4732 10.9645 17.5356C10.0268 16.5979 9.5 15.3261 9.5 14V13C9.51226 12 9.81164 11.0247 10.3625 10.19C10.4652 10.0547 10.5317 9.89538 10.5558 9.7272C10.5798 9.55902 10.5606 9.38748 10.5 9.22877C10.2395 8.55701 10.1142 7.84046 10.1311 7.12018C10.1481 6.39989 10.307 5.69003 10.5988 5.03127C11.4171 5.11931 12.2052 5.39041 12.9046 5.82448C13.604 6.25855 14.1966 6.84446 14.6388 7.53877C14.7288 7.67965 14.8528 7.79569 14.9994 7.87627C15.1459 7.95685 15.3103 7.99939 15.4775 8.00002H19.5212C19.6891 8.00002 19.8543 7.95777 20.0015 7.87716C20.1487 7.79656 20.2733 7.68018 20.3638 7.53877C20.8058 6.84439 21.3985 6.25844 22.0978 5.82436C22.7972 5.39029 23.5853 5.11922 24.4037 5.03127C24.6951 5.69019 24.8536 6.40014 24.8701 7.12043C24.8866 7.84071 24.7609 8.55718 24.5 9.22877C24.4396 9.38596 24.4193 9.55576 24.4412 9.72275C24.463 9.88974 24.5262 10.0486 24.625 10.185C25.1813 11.0197 25.4851 11.9971 25.5 13V14Z" fill="white"/>
</svg>
