<svg width="32" height="33" viewBox="0 0 32 33" fill="none" xmlns="http://www.w3.org/2000/svg">
<path d="M28.5387 9.46002C28.8444 8.47401 28.9425 7.43537 28.8267 6.40958C28.711 5.3838 28.3839 4.39312 27.8662 3.50002C27.7785 3.34796 27.6522 3.22171 27.5001 3.13393C27.3481 3.04616 27.1756 2.99998 27 3.00002C25.8352 2.99758 24.686 3.2676 23.6442 3.7885C22.6024 4.3094 21.6969 5.06674 21 6.00002H18C17.3031 5.06674 16.3976 4.3094 15.3558 3.7885C14.314 3.2676 13.1648 2.99758 12 3.00002C11.8244 2.99998 11.6519 3.04616 11.4999 3.13393C11.3478 3.22171 11.2215 3.34796 11.1337 3.50002C10.6161 4.39312 10.289 5.3838 10.1733 6.40958C10.0575 7.43537 10.1556 8.47401 10.4612 9.46002C9.84341 10.5384 9.51245 11.7572 9.5 13V14C9.5021 15.692 10.1163 17.3261 11.2293 18.6006C12.3422 19.875 13.8787 20.7038 15.555 20.9338C14.8708 21.8093 14.4994 22.8888 14.5 24V25H11.5C10.7044 25 9.94129 24.6839 9.37868 24.1213C8.81607 23.5587 8.5 22.7957 8.5 22C8.5 21.3434 8.37067 20.6932 8.1194 20.0866C7.86812 19.48 7.49983 18.9288 7.03553 18.4645C6.57124 18.0002 6.02005 17.6319 5.41342 17.3806C4.80679 17.1293 4.15661 17 3.5 17C3.23478 17 2.98043 17.1054 2.79289 17.2929C2.60536 17.4804 2.5 17.7348 2.5 18C2.5 18.2652 2.60536 18.5196 2.79289 18.7071C2.98043 18.8947 3.23478 19 3.5 19C4.29565 19 5.05871 19.3161 5.62132 19.8787C6.18393 20.4413 6.5 21.2044 6.5 22C6.5 23.3261 7.02678 24.5979 7.96447 25.5356C8.90215 26.4732 10.1739 27 11.5 27H14.5V29C14.5 29.2652 14.6054 29.5196 14.7929 29.7071C14.9804 29.8947 15.2348 30 15.5 30C15.7652 30 16.0196 29.8947 16.2071 29.7071C16.3946 29.5196 16.5 29.2652 16.5 29V24C16.5 23.2044 16.8161 22.4413 17.3787 21.8787C17.9413 21.3161 18.7044 21 19.5 21C20.2956 21 21.0587 21.3161 21.6213 21.8787C22.1839 22.4413 22.5 23.2044 22.5 24V29C22.5 29.2652 22.6054 29.5196 22.7929 29.7071C22.9804 29.8947 23.2348 30 23.5 30C23.7652 30 24.0196 29.8947 24.2071 29.7071C24.3946 29.5196 24.5 29.2652 24.5 29V24C24.5006 22.8888 24.1292 21.8093 23.445 20.9338C25.1213 20.7038 26.6578 19.875 27.7707 18.6006C28.8837 17.3261 29.4979 15.692 29.5 14V13C29.4875 11.7572 29.1566 10.5384 28.5387 9.46002ZM27.5 14C27.5 15.3261 26.9732 16.5979 26.0355 17.5356C25.0979 18.4732 23.8261 19 22.5 19H16.5C15.1739 19 13.9021 18.4732 12.9645 17.5356C12.0268 16.5979 11.5 15.3261 11.5 14V13C11.5123 12 11.8116 11.0247 12.3625 10.19C12.4652 10.0547 12.5317 9.89538 12.5558 9.7272C12.5798 9.55902 12.5606 9.38748 12.5 9.22877C12.2395 8.55701 12.1142 7.84046 12.1311 7.12018C12.1481 6.39989 12.307 5.69003 12.5988 5.03127C13.4171 5.11931 14.2052 5.39041 14.9046 5.82448C15.604 6.25855 16.1966 6.84446 16.6388 7.53877C16.7288 7.67965 16.8528 7.79569 16.9994 7.87627C17.1459 7.95685 17.3103 7.99939 17.4775 8.00002H21.5212C21.6891 8.00002 21.8543 7.95777 22.0015 7.87716C22.1487 7.79656 22.2733 7.68018 22.3638 7.53877C22.8058 6.84439 23.3985 6.25844 24.0978 5.82436C24.7972 5.39029 25.5853 5.11922 26.4037 5.03127C26.6951 5.69019 26.8536 6.40014 26.8701 7.12043C26.8866 7.84071 26.7609 8.55718 26.5 9.22877C26.4396 9.38596 26.4193 9.55576 26.4412 9.72275C26.463 9.88974 26.5262 10.0486 26.625 10.185C27.1813 11.0197 27.4851 11.9971 27.5 13V14Z" fill="white"/>
</svg>
