<svg width="32" height="33" viewBox="0 0 32 33" fill="none" xmlns="http://www.w3.org/2000/svg">
<path d="M28.7075 27.7925L22.4487 21.535C24.2628 19.3571 25.1674 16.5637 24.9743 13.7359C24.7812 10.9081 23.5054 8.26355 21.4122 6.35244C19.319 4.44134 16.5696 3.4108 13.7359 3.4752C10.9022 3.5396 8.20245 4.69398 6.19822 6.69821C4.194 8.70243 3.03961 11.4022 2.97521 14.2359C2.91081 17.0695 3.94135 19.819 5.85246 21.9122C7.76357 24.0054 10.4081 25.2812 13.2359 25.4743C16.0637 25.6673 18.8571 24.7628 21.035 22.9487L27.2925 29.2075C27.3854 29.3004 27.4957 29.3741 27.6171 29.4244C27.7385 29.4747 27.8686 29.5005 28 29.5005C28.1314 29.5005 28.2615 29.4747 28.3829 29.4244C28.5043 29.3741 28.6146 29.3004 28.7075 29.2075C28.8004 29.1146 28.8741 29.0043 28.9244 28.8829C28.9747 28.7615 29.0006 28.6314 29.0006 28.5C29.0006 28.3686 28.9747 28.2385 28.9244 28.1171C28.8741 27.9957 28.8004 27.8854 28.7075 27.7925ZM5 14.5C5 12.7199 5.52784 10.9799 6.51677 9.49985C7.5057 8.01981 8.91131 6.86625 10.5558 6.18506C12.2004 5.50388 14.01 5.32565 15.7558 5.67291C17.5016 6.02018 19.1053 6.87735 20.364 8.13602C21.6226 9.39469 22.4798 10.9983 22.8271 12.7442C23.1743 14.49 22.9961 16.2996 22.3149 17.9441C21.6337 19.5887 20.4802 20.9943 19.0001 21.9832C17.5201 22.9721 15.78 23.5 14 23.5C11.6139 23.4973 9.32621 22.5483 7.63896 20.861C5.9517 19.1738 5.00264 16.8861 5 14.5Z" fill="white"/>
</svg>
