<svg width="32" height="32" viewBox="0 0 32 32" fill="none" xmlns="http://www.w3.org/2000/svg">
<path d="M29.193 17.7786C29.0647 17.65 28.9039 17.5588 28.7277 17.5148C28.5515 17.4707 28.3667 17.4755 28.193 17.5286C26.2862 18.105 24.2588 18.1533 22.3267 17.6684C20.3946 17.1835 18.6303 16.1834 17.2217 14.7749C15.8131 13.3663 14.8131 11.602 14.3282 9.66989C13.8432 7.7378 13.8916 5.71034 14.468 3.80356C14.5215 3.62981 14.5266 3.44477 14.4828 3.26832C14.439 3.09188 14.348 2.93072 14.2194 2.80217C14.0909 2.67362 13.9297 2.58255 13.7532 2.53874C13.5768 2.49494 13.3918 2.50006 13.218 2.55356C10.5818 3.36111 8.26744 4.97955 6.60426 7.17856C5.14978 9.10963 4.26258 11.408 4.04234 13.8155C3.82211 16.223 4.27756 18.6442 5.35752 20.8072C6.43749 22.9701 8.09919 24.789 10.1559 26.0596C12.2127 27.3302 14.583 28.0021 17.0005 27.9998C19.8209 28.0085 22.5663 27.0916 24.8155 25.3898C27.0145 23.7266 28.633 21.4123 29.4405 18.7761C29.4934 18.603 29.4983 18.4187 29.4547 18.2431C29.4111 18.0674 29.3207 17.9069 29.193 17.7786ZM23.613 23.7923C21.4949 25.3876 18.8719 26.1642 16.2267 25.9789C13.5815 25.7937 11.0923 24.6592 9.21719 22.7843C7.34211 20.9094 6.20741 18.4202 6.02198 15.775C5.83654 13.1299 6.61286 10.5068 8.20801 8.38856C9.24727 7.01613 10.5908 5.90362 12.133 5.13856C12.0452 5.75509 12.0009 6.37705 12.0005 6.99981C12.0042 10.4465 13.375 13.751 15.8121 16.1882C18.2493 18.6254 21.5538 19.9962 25.0005 19.9998C25.6245 19.9996 26.2477 19.9553 26.8655 19.8673C26.0997 21.4097 24.9863 22.7533 23.613 23.7923Z" fill="#00131A"/>
</svg>
