<svg width="32" height="32" viewBox="0 0 32 32" fill="none" xmlns="http://www.w3.org/2000/svg">
<path d="M21.0696 12.4542L17.5225 16L21.0696 19.5458C21.1697 19.6458 21.249 19.7646 21.3032 19.8953C21.3573 20.0261 21.3852 20.1662 21.3852 20.3077C21.3852 20.4492 21.3573 20.5893 21.3032 20.72C21.249 20.8508 21.1697 20.9696 21.0696 21.0696C20.9696 21.1697 20.8508 21.249 20.72 21.3032C20.5893 21.3573 20.4492 21.3852 20.3077 21.3852C20.1662 21.3852 20.0261 21.3573 19.8953 21.3032C19.7646 21.249 19.6458 21.1697 19.5458 21.0696L16 17.5225L12.4542 21.0696C12.3542 21.1697 12.2354 21.249 12.1047 21.3032C11.9739 21.3573 11.8338 21.3852 11.6923 21.3852C11.5508 21.3852 11.4107 21.3573 11.28 21.3032C11.1492 21.249 11.0304 21.1697 10.9304 21.0696C10.8303 20.9696 10.751 20.8508 10.6968 20.72C10.6427 20.5893 10.6148 20.4492 10.6148 20.3077C10.6148 20.1662 10.6427 20.0261 10.6968 19.8953C10.751 19.7646 10.8303 19.6458 10.9304 19.5458L14.4775 16L10.9304 12.4542C10.7283 12.2522 10.6148 11.9781 10.6148 11.6923C10.6148 11.4065 10.7283 11.1325 10.9304 10.9304C11.1325 10.7283 11.4065 10.6148 11.6923 10.6148C11.9781 10.6148 12.2522 10.7283 12.4542 10.9304L16 14.4775L19.5458 10.9304C19.6458 10.8303 19.7646 10.751 19.8953 10.6968C20.0261 10.6427 20.1662 10.6148 20.3077 10.6148C20.4492 10.6148 20.5893 10.6427 20.72 10.6968C20.8508 10.751 20.9696 10.8303 21.0696 10.9304C21.1697 11.0304 21.249 11.1492 21.3032 11.28C21.3573 11.4107 21.3852 11.5508 21.3852 11.6923C21.3852 11.8338 21.3573 11.9739 21.3032 12.1047C21.249 12.2354 21.1697 12.3542 21.0696 12.4542ZM30 16C30 18.7689 29.1789 21.4757 27.6406 23.778C26.1022 26.0803 23.9157 27.8747 21.3576 28.9343C18.7994 29.9939 15.9845 30.2712 13.2687 29.731C10.553 29.1908 8.05845 27.8574 6.10051 25.8995C4.14258 23.9416 2.80921 21.447 2.26901 18.7313C1.72882 16.0155 2.00607 13.2006 3.06569 10.6424C4.12532 8.08427 5.91973 5.89776 8.22202 4.35943C10.5243 2.82109 13.2311 2 16 2C19.7118 2.00392 23.2705 3.48017 25.8952 6.10483C28.5198 8.72949 29.9961 12.2882 30 16ZM27.8462 16C27.8462 13.6571 27.1514 11.3667 25.8497 9.41863C24.548 7.47054 22.6979 5.95219 20.5333 5.05558C18.3687 4.15897 15.9869 3.92438 13.6889 4.38147C11.391 4.83855 9.28022 5.96679 7.62351 7.6235C5.9668 9.28022 4.83856 11.391 4.38147 13.6889C3.92439 15.9869 4.15898 18.3687 5.05559 20.5333C5.95219 22.6979 7.47054 24.548 9.41863 25.8497C11.3667 27.1514 13.6571 27.8461 16 27.8461C19.1407 27.8426 22.1518 26.5934 24.3726 24.3726C26.5934 22.1517 27.8426 19.1407 27.8462 16Z" fill="#F2FAFD"/>
</svg>
