<svg width="32" height="32" viewBox="0 0 32 32" fill="none" xmlns="http://www.w3.org/2000/svg">
<path fill-rule="evenodd" clip-rule="evenodd" d="M25.9776 22.6668C27.2962 20.6935 28 18.3734 28 16C28 12.8174 26.7357 9.76515 24.4853 7.51472C22.2348 5.26428 19.1826 4 16 4C13.6266 4 11.3066 4.70379 9.33316 6.02236C7.35977 7.34094 5.8217 9.21508 4.91345 11.4078C4.0052 13.6005 3.76756 16.0133 4.23058 18.3411C4.6936 20.6689 5.83649 22.807 7.51472 24.4853C9.19295 26.1635 11.3311 27.3064 13.6589 27.7694C15.9867 28.2324 18.3995 27.9948 20.5922 27.0865C22.7849 26.1783 24.6591 24.6402 25.9776 22.6668ZM17.555 16L21.1776 12.3786C21.2798 12.2764 21.3609 12.1551 21.4162 12.0216C21.4715 11.8881 21.5 11.745 21.5 11.6005C21.5 11.456 21.4715 11.3129 21.4162 11.1793C21.3609 11.0458 21.2798 10.9245 21.1776 10.8223C21.0754 10.7201 20.9541 10.6391 20.8206 10.5838C20.6871 10.5285 20.544 10.5 20.3995 10.5C20.2549 10.5 20.1118 10.5285 19.9783 10.5838C19.8448 10.6391 19.7235 10.7201 19.6213 10.8223L16 14.4451L12.3786 10.8223C12.1723 10.6159 11.8924 10.5 11.6005 10.5C11.3086 10.5 11.0287 10.6159 10.8223 10.8223C10.6159 11.0287 10.5 11.3086 10.5 11.6005C10.5 11.8923 10.6159 12.1723 10.8223 12.3786L14.4451 16L10.8223 19.6213C10.7201 19.7235 10.6391 19.8448 10.5838 19.9783C10.5285 20.1118 10.5 20.2549 10.5 20.3995C10.5 20.544 10.5285 20.6871 10.5838 20.8206C10.6391 20.9541 10.7201 21.0754 10.8223 21.1776C10.9245 21.2798 11.0458 21.3609 11.1793 21.4162C11.3129 21.4715 11.456 21.5 11.6005 21.5C11.745 21.5 11.8881 21.4715 12.0216 21.4162C12.1551 21.3609 12.2765 21.2798 12.3786 21.1776L16 17.5549L19.6213 21.1776C19.7235 21.2798 19.8448 21.3609 19.9783 21.4162C20.1118 21.4715 20.2549 21.5 20.3995 21.5C20.544 21.5 20.6871 21.4715 20.8206 21.4162C20.9541 21.3609 21.0754 21.2798 21.1776 21.1776C21.2798 21.0754 21.3609 20.9541 21.4162 20.8206C21.4715 20.6871 21.5 20.544 21.5 20.3995C21.5 20.2549 21.4715 20.1118 21.4162 19.9783C21.3609 19.8448 21.2798 19.7235 21.1776 19.6213L17.555 16Z" fill="white"/>
</svg>
