<svg width="500" height="500" viewBox="0 0 500 500" fill="none" xmlns="http://www.w3.org/2000/svg">
<path d="M150 401.274C150 408.821 140.875 412.6 135.539 407.264L92.7364 364.461C87.3998 359.125 91.1794 350 98.7264 350H141.529C146.207 350 150 353.793 150 358.471V401.274ZM350 98.7264C350 91.1793 359.125 87.3997 364.461 92.7363L407.264 135.539C412.6 140.875 408.821 150 401.274 150H358.471C353.793 150 350 146.207 350 141.529V98.7264ZM350 198.471C350 193.793 353.793 190 358.471 190H441.529C446.207 190 450 193.793 450 198.471V401.274C450 408.821 440.875 412.6 435.539 407.264L352.481 324.206C350.893 322.617 350 320.463 350 318.216V198.471ZM407.264 435.539C412.6 440.875 408.821 450 401.274 450H198.471C193.793 450 190 446.207 190 441.529V358.471C190 353.793 193.793 350 198.471 350H318.216C320.463 350 322.618 350.893 324.206 352.481L407.264 435.539ZM198.471 310C193.793 310 190 306.207 190 301.529V198.471C190 193.793 193.793 190 198.471 190H301.529C306.207 190 310 193.793 310 198.471V301.529C310 306.207 306.207 310 301.529 310H198.471ZM301.529 50C306.207 50 310 53.7927 310 58.4712V141.529C310 146.207 306.207 150 301.529 150H181.784C179.537 150 177.383 149.107 175.794 147.519L92.7363 64.4613C87.3998 59.1247 91.1794 50 98.7264 50H301.529ZM50.0001 98.7263C50.0001 91.1793 59.1248 87.3997 64.4614 92.7363L147.519 175.794C149.108 177.382 150 179.537 150 181.784V301.529C150 306.207 146.207 310 141.529 310H58.4713C53.7928 310 50.0001 306.207 50.0001 301.529V98.7263Z" fill="#E8F9FC"/>
</svg>
