<svg width="500" height="500" viewBox="0 0 500 500" fill="none" xmlns="http://www.w3.org/2000/svg">
<path d="M138.144 419.207C138.144 427.649 127.938 431.876 121.968 425.907L74.0919 378.031C68.1227 372.061 72.3504 361.855 80.7921 361.855H128.669C133.902 361.855 138.144 366.097 138.144 371.33V419.207ZM361.853 80.7938C361.853 72.3521 372.06 68.1244 378.029 74.0936L425.905 121.97C431.874 127.939 427.647 138.146 419.205 138.146H371.329C366.095 138.146 361.853 133.903 361.853 128.67V80.7938ZM361.853 192.363C361.853 187.13 366.095 182.888 371.329 182.888H464.232C469.465 182.888 473.708 187.13 473.708 192.363V419.207C473.708 427.649 463.501 431.876 457.532 425.907L364.628 333.003C362.851 331.226 361.853 328.816 361.853 326.303V192.363ZM425.905 457.534C431.874 463.503 427.647 473.709 419.205 473.709H192.361C187.128 473.709 182.886 469.467 182.886 464.234V371.33C182.886 366.097 187.128 361.855 192.361 361.855H326.301C328.814 361.855 331.225 362.853 333.002 364.63L425.905 457.534ZM192.361 317.113C187.128 317.113 182.886 312.871 182.886 307.638V192.363C182.886 187.13 187.128 182.888 192.361 182.888H307.636C312.869 182.888 317.111 187.13 317.111 192.363V307.638C317.111 312.871 312.869 317.113 307.636 317.113H192.361ZM307.636 26.2911C312.869 26.2911 317.111 30.5335 317.111 35.7666V128.67C317.111 133.903 312.869 138.146 307.636 138.146H173.696C171.183 138.146 168.773 137.147 166.996 135.37L74.0919 42.4668C68.1227 36.4976 72.3504 26.2911 80.7921 26.2911H307.636ZM26.2894 80.7938C26.2894 72.352 36.4958 68.1244 42.465 74.0936L135.369 166.997C137.146 168.774 138.144 171.184 138.144 173.697V307.638C138.144 312.871 133.902 317.113 128.669 317.113H35.7649C30.5317 317.113 26.2894 312.871 26.2894 307.638V80.7938Z" fill="#E8F9FC"/>
</svg>
