<svg width="500" height="500" viewBox="0 0 500 500" fill="none" xmlns="http://www.w3.org/2000/svg">
<path fill-rule="evenodd" clip-rule="evenodd" d="M71.2219 380.902L119.098 428.778C127.626 437.306 142.206 431.266 142.206 419.206V371.33C142.206 363.854 136.146 357.794 128.67 357.794H80.7935C68.7339 357.794 62.6944 372.374 71.2219 380.902ZM428.778 119.098L380.902 71.2218C372.374 62.6943 357.794 68.7338 357.794 80.7935V128.67C357.794 136.146 363.854 142.206 371.33 142.206H419.206C431.266 142.206 437.306 127.626 428.778 119.098ZM464.234 178.826H371.33C363.854 178.826 357.794 184.887 357.794 192.363V326.303C357.794 329.893 359.22 333.336 361.758 335.874L454.662 428.778C463.189 437.306 477.77 431.266 477.77 419.206V192.363C477.77 184.887 471.71 178.826 464.234 178.826ZM192.363 477.77H419.206C431.266 477.77 437.306 463.189 428.778 454.662L335.874 361.758C333.336 359.22 329.893 357.794 326.303 357.794H192.363C184.887 357.794 178.826 363.854 178.826 371.33V464.234C178.826 471.71 184.887 477.77 192.363 477.77ZM178.826 192.363V307.637C178.826 315.113 184.887 321.174 192.363 321.174H307.637C315.113 321.174 321.174 315.113 321.174 307.637V192.363C321.174 184.887 315.113 178.826 307.637 178.826H192.363C184.887 178.826 178.826 184.887 178.826 192.363ZM321.174 128.67V35.7662C321.174 28.2903 315.113 22.2299 307.637 22.2299H80.7935C68.7339 22.2299 62.6944 36.8105 71.2219 45.3379L164.126 138.242C166.664 140.78 170.107 142.206 173.697 142.206H307.637C315.113 142.206 321.174 136.146 321.174 128.67ZM138.242 164.125L45.338 71.2218C36.8106 62.6943 22.2299 68.7338 22.2299 80.7934V307.637C22.2299 315.113 28.2904 321.174 35.7663 321.174H128.67C136.146 321.174 142.206 315.113 142.206 307.637V173.697C142.206 170.107 140.78 166.664 138.242 164.125Z" fill="#E8F9FC"/>
</svg>
