<svg fill="none" height="501" viewBox="0 0 501 501" width="501" xmlns="http://www.w3.org/2000/svg"><path clip-rule="evenodd" d="m161.055 250.195-65.4256-65.911v131.821zm-63.8303 74.371 68.8273-69.337 80.814 81.412v137.566z" fill="#11252c" fill-rule="evenodd"/><path d="m421.402 323.47v-145.833c-.001-1.936-.383-3.852-1.125-5.639s-1.828-3.411-3.198-4.778l-156.25-156.2501c-2.763-2.76268-6.51-4.31473-10.417-4.31473s-7.654 1.55205-10.416 4.31473l-156.2502 156.2501c-2.7324 2.735-4.2803 6.434-4.3099 10.299v145.834c-.0161 1.954.3567 3.891 1.0966 5.7.7399 1.808 1.8322 3.451 3.2133 4.834l156.2502 156.25c2.762 2.762 6.509 4.314 10.416 4.314s7.654-1.552 10.417-4.314l156.25-156.25c1.37-1.368 2.456-2.991 3.198-4.779.742-1.787 1.124-3.703 1.125-5.638zm-29.466-110.274v74.714l-37.357-37.357zm-283.047 74.714v-74.714l37.357 37.357zm58.19-58.19-52.083-52.083 120.69-120.6905v104.1665zm98.06-172.7735 120.69 120.6905-52.083 52.083-68.607-68.607zm47.773 193.6065-62.5 62.5-62.5-62.5 62.5-62.5zm-197.916 72.917 52.083-52.083 68.607 68.606v104.167zm150.143 120.69v-104.167l68.607-68.606 52.083 52.083z" fill="#4dd1f5"/><path d="m244.366 162.718-78.314 78.894-64.941-65.423 143.255-143.2544zm90.406 78.894-78.313-78.894v-129.7834l143.254 143.2544zm-8.52 8.583-75.84 76.402-75.84-76.402 75.84-76.402zm-69.793 217.977v-130.501l78.313-78.893 65.299 65.782zm146.236-277.82v119.686l-59.403-59.843zm-304.5656 119.686v-119.686l59.4026 59.843zm2.6246 14.522 65.298-65.782 78.314 78.893v130.501z" stroke="#266e82" stroke-width="5"/><path clip-rule="evenodd" d="m246.83 14.7543c1.978-1.9786 5.186-1.9786 7.165 0l158.329 158.3297c.95.95 1.484 2.239 1.484 3.582v147.774c0 1.344-.534 2.633-1.484 3.583l-158.329 158.329c-1.979 1.979-5.187 1.979-7.166 0l-158.3288-158.329c-.9502-.95-1.484-2.239-1.484-3.583v-147.774c0-1.344.5338-2.632 1.484-3.582zm-147.1027 161.4327 66.3247 66.816 79.294-79.881v-132.5533zm155.7517-145.6184v132.5534l79.293 79.881 66.325-66.816zm72.154 219.6264-77.221-77.793-77.221 77.793 77.221 77.793zm7.139 7.192 66.682 67.176-145.975 145.975v-133.27zm68.903 55.029-61.764-62.221 61.764-62.222zm-306.5257-124.443 61.7637 62.222-61.7637 62.221zm68.9027 69.414-66.6818 67.176 145.9758 145.975v-133.27z" fill="#11252c" fill-rule="evenodd"/></svg>